<?xml version="1.0" standalone="no"?>
<!DOCTYPE svg PUBLIC "-//W3C//DTD SVG 20010904//EN"
 "http://www.w3.org/TR/2001/REC-SVG-20010904/DTD/svg10.dtd">
<svg version="1.0" xmlns="http://www.w3.org/2000/svg"
 width="115.000000pt" height="115.000000pt" viewBox="0 0 115.000000 115.000000"
 preserveAspectRatio="xMidYMid meet">

<g transform="translate(0.000000,115.000000) scale(0.100000,-0.100000)"
fill="#000000" stroke="none">
<path d="M538 1024 c-25 -38 -57 -90 -72 -116 l-28 -48 -174 0 c-96 0 -174 -3
-174 -7 0 -5 37 -71 83 -148 l83 -140 -87 -145 -88 -145 178 -3 179 -2 68
-115 c38 -63 71 -115 75 -115 4 0 39 52 79 116 l73 116 171 -3 c143 -2 170 0
168 12 -2 7 -40 74 -84 147 l-80 133 81 132 c44 73 83 140 86 150 6 15 -9 17
-171 19 l-178 3 -64 105 c-35 58 -67 109 -72 114 -5 5 -28 -21 -52 -60z m40
-316 l-3 -123 -66 130 -67 131 67 108 66 109 3 -116 c1 -64 1 -171 0 -239z
m-256 11 c111 -67 213 -126 225 -132 47 -21 20 -27 -120 -27 -125 0 -146 2
-159 18 -12 13 -114 181 -155 255 -2 4 -2 7 1 7 3 0 96 -55 208 -121z m653 69
c-277 -160 -379 -217 -383 -214 -2 2 27 63 64 135 l66 131 171 0 171 0 -89
-52z m3 -363 c45 -74 78 -135 74 -135 -5 0 -71 37 -147 83 -77 46 -177 105
-222 131 -46 26 -83 50 -83 52 0 2 67 4 149 4 l148 0 81 -135z m-386 111 c7
-7 40 -67 72 -134 l60 -121 -65 -105 c-35 -58 -67 -106 -71 -106 -4 0 -9 107
-10 238 l-3 237 -66 -130 -67 -130 -168 -3 c-131 -2 -166 0 -157 9 18 18 436
258 450 259 6 0 18 -6 25 -14z"/>
</g>
</svg>
